<?xml version="1.0" encoding="UTF-8" standalone="no"?>
<!-- Created with Inkscape (http://www.inkscape.org/) -->

<svg
   width="365.00104mm"
   height="165.00104mm"
   viewBox="0 0 365.00104 165.00104"
   version="1.1"
   id="svg5"
   xmlns="http://www.w3.org/2000/svg"
   xmlns:svg="http://www.w3.org/2000/svg">
  <defs
     id="defs2" />
  <g
     id="layer1"
     transform="translate(-4.9989581,-17.5)">
    <path
       style="fill:none;stroke:#FFFFFF;stroke-width:15;stroke-linecap:round;stroke-linejoin:miter;stroke-dasharray:none;stroke-opacity:1"
       d="M 62.5,25 V 175"
       id="path2260" />
    <path
       style="fill:none;stroke:#FFFFFF;stroke-width:15;stroke-linecap:round;stroke-linejoin:miter;stroke-dasharray:none;stroke-opacity:1"
       d="m 12.5,37.5 v 22.499999 c 0,0 0,7.500001 7.5,7.500001 h 85 c 0,0 7.5,0 7.5,-7.500001 V 37.5"
       id="path2262" />
    <path
       style="fill:none;stroke:#FFFFFF;stroke-width:15;stroke-linecap:round;stroke-linejoin:miter;stroke-dasharray:none;stroke-opacity:1"
       d="M 95,32.5 H 80"
       id="path2360" />
    <path
       style="fill:none;stroke:#FFFFFF;stroke-width:15;stroke-linecap:round;stroke-linejoin:miter;stroke-dasharray:none;stroke-opacity:1"
       d="M 95,50 H 80"
       id="path2360-3" />
    <path
       style="fill:none;stroke:#FFFFFF;stroke-width:15;stroke-linecap:round;stroke-linejoin:miter;stroke-dasharray:none;stroke-opacity:1"
       d="m 32.5,92.5 0,70 c 0,0 0,12.5 -12.500001,12.5 h -7.5"
       id="path2492" />
    <path
       style="fill:none;stroke:#FFFFFF;stroke-width:15;stroke-linecap:round;stroke-linejoin:miter;stroke-dasharray:none;stroke-opacity:1"
       d="m 92.5,92.5 0,70 c 0,0 0,12.5 12.5,12.5 h 7.5"
       id="path2492-5" />
    <path
       style="fill:none;stroke:#FFFFFF;stroke-width:15;stroke-linecap:round;stroke-linejoin:miter;stroke-dasharray:none;stroke-opacity:1"
       d="M 137.5,62.499999 H 230 c 0,0 7.5,0 7.5,7.5 C 237.5,77.5 237.5,175 237.5,175"
       id="path2516" />
    <path
       style="fill:none;stroke:#FFFFFF;stroke-width:15;stroke-linecap:round;stroke-linejoin:miter;stroke-dasharray:none;stroke-opacity:1"
       d="m 167.5,25 v 137.5 c 0,0 0,12.5 -12.5,12.5 -12.5,0 -17.5,0 -17.5,0"
       id="path2518" />
    <path
       style="fill:none;stroke:#FFFFFF;stroke-width:15;stroke-linecap:round;stroke-linejoin:miter;stroke-dasharray:none;stroke-opacity:1"
       d="m 262.5,42.5 35,0"
       id="path2522" />
    <path
       style="fill:none;stroke:#FFFFFF;stroke-width:15;stroke-linecap:round;stroke-linejoin:miter;stroke-dasharray:none;stroke-opacity:1"
       d="m 262.5,62.5 35,0"
       id="path2522-2" />
    <path
       style="fill:none;stroke:#FFFFFF;stroke-width:15;stroke-linecap:round;stroke-linejoin:miter;stroke-dasharray:none;stroke-opacity:1"
       d="m 262.5,82.5 35,0"
       id="path2522-2-2" />
    <path
       style="fill:none;stroke:#FFFFFF;stroke-width:15;stroke-linecap:round;stroke-linejoin:miter;stroke-dasharray:none;stroke-opacity:1"
       d="M 280,25.000002 V 82.5"
       id="path2568" />
    <path
       style="fill:none;stroke:#FFFFFF;stroke-width:15;stroke-linecap:round;stroke-linejoin:miter;stroke-dasharray:none;stroke-opacity:1"
       d="m 262.5,175 h 14.99999 c 0,0 7.50001,0 7.50001,-7.5 V 110 c 0,0 0,-7.5 -7.50001,-7.5 H 262.5"
       id="path2633" />
    <path
       style="fill:none;stroke:#FFFFFF;stroke-width:15;stroke-linecap:round;stroke-linejoin:miter;stroke-dasharray:none;stroke-opacity:1"
       d="M 262.5,150 V 102.5"
       id="path2635" />
    <path
       style="fill:none;stroke:#FFFFFF;stroke-width:15;stroke-linecap:round;stroke-linejoin:miter;stroke-dasharray:none;stroke-opacity:1"
       d="m 267.5,127.5 h 27.50002 c 0,0 7.49998,0 7.49998,7.5 l -10e-6,32.5 c 0,0 0,7.5 7.50001,7.5 h 52.49998"
       id="path2637" />
    <path
       style="fill:none;stroke:#FFFFFF;stroke-width:15;stroke-linecap:round;stroke-linejoin:miter;stroke-dasharray:none;stroke-opacity:1"
       d="m 320.00003,45 -2e-5,105 c 0,0 0,7.5 7.49999,7.5 H 355 c 0,0 7.49998,0 7.49998,-7.5 L 362.5,45"
       id="path4817" />
    <path
       style="fill:none;stroke:#FFFFFF;stroke-width:8.5;stroke-linecap:round;stroke-linejoin:miter;stroke-dasharray:none;stroke-opacity:1"
       d="m 335,30 -10e-6,127.5"
       id="path4821" />
    <path
       style="fill:none;stroke:#FFFFFF;stroke-width:8.5;stroke-linecap:round;stroke-linejoin:miter;stroke-dasharray:none;stroke-opacity:1"
       d="m 347.5,52.5 v 105"
       id="path4821-6" />
    <path
       style="fill:none;stroke:#FFFFFF;stroke-width:10;stroke-linecap:butt;stroke-linejoin:miter;stroke-dasharray:none;stroke-opacity:1"
       d="m 335,87.5 h 12.5"
       id="path4845" />
    <path
       style="fill:none;stroke:#FFFFFF;stroke-width:10;stroke-linecap:butt;stroke-linejoin:miter;stroke-dasharray:none;stroke-opacity:1"
       d="m 335,120 h 12.5"
       id="path4845-6" />
    <path
       style="fill:none;stroke:#FFFFFF;stroke-width:15;stroke-linecap:round;stroke-linejoin:miter;stroke-dasharray:none;stroke-opacity:1"
       d="m 319.99999,52.499999 h 42.49999"
       id="path4869" />
    <path
       style="fill:none;stroke:#FFFFFF;stroke-width:15;stroke-linecap:round;stroke-linejoin:miter;stroke-dasharray:none;stroke-opacity:1"
       d="m 320,25 h 42.49999"
       id="path4869-0" />
  </g>
</svg>
